<svg width="220" height="110" viewBox="0 0 220 110" fill="none" xmlns="http://www.w3.org/2000/svg">
<g clip-path="url(#clip0_2043_108)">
<path d="M213.525 40.7583V40.7933H192.922V11.44H159.403V-12.5583V-28.8333H213.525V40.7583Z" fill="#FF6600"/>
<path d="M192.922 40.7933V65.2117H49.0717V25.9183H159.403V40.7933H192.922Z" fill="#FFCC00"/>
<path d="M192.922 11.44V40.7933H159.403V25.9183V11.44H192.922Z" fill="#FFCC00"/>
<path d="M159.403 11.44H49.0717V25.9183H159.403V11.44Z" fill="#0066FF"/>
<path d="M159.403 -12.5583V11.44H49.0717V-3.03832L159.403 -12.5583Z" fill="#0033CC"/>
<path d="M49.0717 65.2117V84.8817H17.84V77.2517H17.8517V25.09H17.84V10.3433V-28.8333H49.0717V-3.03834V11.44V25.9183V65.2117Z" fill="#0033CC"/>
<path d="M17.8517 25.09V77.2517H17.84V68.2567V45.5067V25.09H17.8517Z" fill="#0033CC"/>
<path d="M17.84 84.8816V108.833H-11.3033V77.2516H17.84V84.8816Z" fill="#FF6600"/>
<path d="M17.84 68.2567H-11.3033V77.2517H17.84V68.2567Z" fill="#FF6600"/>
<path d="M17.84 45.5067H-11.3033V68.2567H17.84V45.5067Z" fill="#FFCC00"/>
<path d="M18 10H-11V46H18V10Z" fill="#0099FF"/>
<path d="M214.685 39.5917V-30H158.156V-13.6317L50.0179 -4.31V-30H16.4093V9.17667H-10.4355V-11.5433H-37V25.8833H-12.7719V33.105C-15.6106 34.995 -18.2857 37.1533 -20.7039 39.5333C-30.797 49.4733 -36.5795 63.2167 -36.5795 77.2517V78.4183H-12.7719V110H18.7456V86.0483H50.0179V66.3783H194.055V41.96H213.517L214.685 41.925H220V39.5917H214.685ZM50.0179 12.6067H158.156V24.7517H50.0179V12.6067ZM158.156 10.2733H50.0179V-1.965L158.156 -11.2867V10.2733ZM-10.4355 67.09V46.6733H16.4093V67.09H-10.4355ZM16.4093 11.51V44.34H-10.4355V11.51H16.4093ZM-34.6636 -9.21H-12.7719V23.55H-34.6636V-9.21ZM-34.2314 76.085C-33.916 63.0767 -28.4372 50.43 -19.0684 41.2017C-17.1175 39.2883 -15.0148 37.5267 -12.7719 35.94V76.085H-34.2314ZM-10.4355 107.667V69.4233H16.4093V107.667H-10.4355ZM47.6815 83.715H18.7456V-27.6667H47.6815V83.715ZM191.718 64.045H50.0179V27.085H160.493V12.6067H191.718V64.045ZM212.348 39.6267H194.055V10.2733H160.493V-27.6667H212.348V39.6267Z" fill="black"/>
</g>
<defs>
<clipPath id="clip0_2043_108">
<rect width="220" height="110" fill="white"/>
</clipPath>
</defs>
</svg>
