<svg width="190" height="70" viewBox="0 0 190 70" fill="none" xmlns="http://www.w3.org/2000/svg">
<g clip-path="url(#clip0_6_28)">
<path d="M49.65 21.8389L34.2127 45.0666L5.14255 0.447937H19.6243L34.2127 23.7108L48.8042 0.447937H62.905V68C58.4856 61.1939 54.0662 53.7798 49.65 46.9737V21.8357V21.8389ZM34.2191 43.4123L50.5636 18.8247V46.7114L61.9915 64.9217V1.35349H49.311L34.2159 25.4228L19.1207 1.35349H6.81799L34.2191 43.4123Z" fill="black"/>
<path d="M66.8596 64.9249L78.1939 47.4665V1.35349H66.8596V64.9217V64.9249ZM79.0332 47.8377L65.946 68V0.447937H79.1075V47.7257L79.0332 47.8377Z" fill="black"/>
<path d="M1.12988 0.399963L32.0885 48.1513L31.5236 49.0249L0 0.399963H1.12988Z" fill="black"/>
<path d="M86.1418 0.345581H91.252L95.4164 7.04287L99.5808 0.345581H104.694V17.6472H99.8811V7.71163L95.4293 14.4857H95.3293L90.9034 7.76283V17.6504H86.1418V0.345581Z" fill="black"/>
<path d="M112.326 0.220764H116.987L124.419 17.6471H119.231L117.959 14.5593H111.228L109.982 17.6471H104.895L112.326 0.220764ZM116.565 10.8507L114.618 5.9325L112.649 10.8507H116.565Z" fill="black"/>
<path d="M124.616 0.345581H132.87C134.216 0.345581 135.356 0.508773 136.286 0.838358C137.215 1.16794 137.971 1.62872 138.555 2.22389C139.585 3.21265 140.101 4.55658 140.101 6.2525V6.3037C140.101 7.63804 139.775 8.74199 139.13 9.61554C138.481 10.4891 137.609 11.1579 136.512 11.6154L140.676 17.6472H135.091L131.576 12.4058H129.455V17.6472H124.616V0.345581ZM132.647 8.65239C133.477 8.65239 134.116 8.4668 134.568 8.09562C135.017 7.72443 135.243 7.22846 135.243 6.60129V6.55329C135.243 5.86212 135.011 5.34695 134.542 5.00776C134.078 4.67178 133.438 4.50219 132.622 4.50219H129.455V8.65559H132.647V8.65239Z" fill="black"/>
<path d="M149.457 17.9928C148.211 17.9928 147.036 17.772 145.938 17.3272C144.844 16.8824 143.888 16.2616 143.084 15.4617C142.277 14.6617 141.638 13.7146 141.164 12.6202C140.689 11.5259 140.453 10.3323 140.453 9.04918V8.99798C140.453 7.74684 140.686 6.57249 141.151 5.47494C141.615 4.38059 142.258 3.42384 143.071 2.60788C143.888 1.79192 144.853 1.15515 145.977 0.691168C147.1 0.230389 148.324 0 149.657 0C150.554 0 151.368 0.0863959 152.101 0.259188C152.83 0.43198 153.502 0.678368 154.109 1.00155C154.716 1.32154 155.264 1.70552 155.755 2.1503C156.246 2.59508 156.682 3.08146 157.066 3.60943L153.424 6.4029C152.927 5.77573 152.378 5.28295 151.778 4.91817C151.181 4.55659 150.458 4.37419 149.609 4.37419C148.995 4.37419 148.433 4.49259 147.927 4.73258C147.42 4.97257 146.984 5.29575 146.619 5.70853C146.254 6.12131 145.967 6.60769 145.76 7.16766C145.551 7.72764 145.447 8.32281 145.447 8.94678V8.99798C145.447 9.64115 145.551 10.2459 145.76 10.8155C145.967 11.3851 146.254 11.8746 146.619 12.2874C146.984 12.7002 147.42 13.0234 147.927 13.2634C148.433 13.5034 148.995 13.6218 149.609 13.6218C150.057 13.6218 150.47 13.5738 150.845 13.4746C151.219 13.3754 151.558 13.2314 151.868 13.0426C152.175 12.8538 152.466 12.6298 152.74 12.377C153.014 12.121 153.285 11.8362 153.55 11.5259L157.192 14.0953C156.775 14.6553 156.323 15.1737 155.833 15.6537C155.342 16.1304 154.787 16.5432 154.164 16.8888C153.541 17.2344 152.84 17.5064 152.068 17.7048C151.297 17.9032 150.425 18.0024 149.463 18.0024L149.457 17.9928Z" fill="black"/>
<path d="M163.793 0.220764H168.455L175.886 17.6471H170.698L169.427 14.5593H162.696L161.45 17.6471H156.362L163.793 0.220764ZM168.032 10.8507L166.085 5.9325L164.116 10.8507H168.032Z" fill="black"/>
<path d="M182.943 17.9447C181.381 17.9447 179.896 17.7048 178.491 17.2248C177.087 16.7448 175.844 16.0216 174.766 15.0617L177.458 11.865C179.205 13.2506 181.09 13.9417 183.121 13.9417C183.77 13.9417 184.263 13.8393 184.602 13.6345C184.945 13.4298 185.116 13.1354 185.116 12.7578V12.7098C185.116 12.5274 185.074 12.3674 184.993 12.2266C184.909 12.0858 184.754 11.9514 184.531 11.8202C184.305 11.689 184.008 11.561 183.634 11.4394C183.259 11.3179 182.772 11.1867 182.175 11.0555C181.245 10.8411 180.38 10.6075 179.583 10.3515C178.785 10.0955 178.091 9.76913 177.5 9.36275C176.913 8.95956 176.445 8.45719 176.106 7.85882C175.764 7.25724 175.592 6.51488 175.592 5.62532V5.57732C175.592 4.77096 175.747 4.0318 176.054 3.35663C176.361 2.68146 176.81 2.09909 177.4 1.60631C177.988 1.11353 178.701 0.729551 179.534 0.460763C180.364 0.188776 181.303 0.0543823 182.349 0.0543823C183.847 0.0543823 185.18 0.249573 186.352 0.639955C187.524 1.03034 188.586 1.60631 189.532 2.36787L187.114 5.76291C186.317 5.20294 185.497 4.77736 184.657 4.48937C183.818 4.20139 183.008 4.05739 182.226 4.05739C181.645 4.05739 181.21 4.16299 180.919 4.37738C180.628 4.59177 180.483 4.85416 180.483 5.16774V5.21894C180.483 5.41733 180.528 5.58692 180.622 5.73732C180.716 5.88771 180.871 6.0221 181.097 6.1437C181.323 6.26529 181.629 6.39008 182.02 6.51488C182.41 6.63647 182.904 6.76447 183.502 6.89566C184.499 7.11005 185.4 7.35964 186.207 7.64763C187.014 7.93561 187.698 8.2844 188.263 8.69718C188.828 9.10676 189.261 9.60593 189.561 10.1883C189.861 10.7739 190.01 11.4682 190.01 12.2746V12.3258C190.01 13.2154 189.839 14.0025 189.496 14.6937C189.157 15.3849 188.676 15.9736 188.063 16.4568C187.446 16.9432 186.707 17.3112 185.845 17.5672C184.98 17.8231 184.015 17.9511 182.953 17.9511L182.943 17.9447Z" fill="black"/>
<path d="M86.2419 24.29H91.1035V41.5916H86.2419V24.29ZM89.3603 18.5559L93.7733 19.9638L90.1093 23.1285H86.7681L89.3603 18.5559Z" fill="black"/>
<path d="M101.205 41.9372C99.9585 41.9372 98.7835 41.7164 97.6859 41.2716C96.5915 40.8269 95.636 40.2061 94.8321 39.4061C94.0251 38.6062 93.3859 37.659 92.9113 36.5647C92.4368 35.4703 92.2011 34.2768 92.2011 32.9936V32.9424C92.2011 31.6913 92.4336 30.517 92.8984 29.4194C93.3633 28.3251 94.0057 27.3683 94.8192 26.5523C95.636 25.7364 96.6012 25.0996 97.7246 24.6356C98.848 24.1748 100.072 23.9445 101.405 23.9445C102.302 23.9445 103.116 24.0309 103.849 24.2036C104.578 24.3764 105.25 24.6228 105.856 24.946C106.463 25.266 107.012 25.65 107.503 26.0948C107.994 26.5395 108.429 27.0259 108.814 27.5539L105.172 30.3474C104.675 29.7202 104.126 29.2274 103.526 28.8626C102.928 28.501 102.205 28.3187 101.356 28.3187C100.743 28.3187 100.181 28.437 99.6745 28.677C99.1676 28.917 98.7318 29.2402 98.367 29.653C98.0022 30.0658 97.7149 30.5521 97.5083 31.1121C97.2985 31.6721 97.1952 32.2673 97.1952 32.8912V32.9424C97.1952 33.5856 97.2985 34.1904 97.5083 34.7599C97.7149 35.3295 98.0022 35.8191 98.367 36.2319C98.7318 36.6447 99.1676 36.9678 99.6745 37.2078C100.181 37.4478 100.743 37.5662 101.356 37.5662C101.805 37.5662 102.218 37.5182 102.593 37.419C102.967 37.3198 103.306 37.1758 103.616 36.987C103.923 36.7983 104.213 36.5743 104.488 36.3215C104.762 36.0655 105.033 35.7807 105.298 35.4703L108.939 38.0398C108.523 38.5998 108.071 39.1181 107.58 39.5981C107.09 40.0749 106.534 40.4877 105.911 40.8333C105.288 41.1788 104.588 41.4508 103.816 41.6492C103.045 41.8476 102.173 41.9468 101.211 41.9468L101.205 41.9372Z" fill="black"/>
<path d="M118.285 41.9372C116.939 41.9372 115.693 41.7036 114.544 41.2333C113.398 40.7629 112.407 40.1261 111.577 39.3166C110.744 38.5102 110.092 37.5598 109.617 36.4751C109.143 35.3871 108.907 34.2256 108.907 32.9905V32.9393C108.907 31.7041 109.143 30.5394 109.617 29.4418C110.092 28.3475 110.754 27.3907 111.6 26.5748C112.449 25.7588 113.446 25.1156 114.592 24.6453C115.738 24.1749 116.984 23.9413 118.334 23.9413C119.683 23.9413 120.926 24.1749 122.075 24.6453C123.224 25.1156 124.212 25.7524 125.042 26.562C125.875 27.3683 126.527 28.3187 127.001 29.4034C127.476 30.4914 127.712 31.6529 127.712 32.8881V32.9393C127.712 34.1744 127.476 35.3423 127.001 36.4367C126.527 37.531 125.865 38.4878 125.019 39.3038C124.17 40.1197 123.173 40.7629 122.027 41.2333C120.881 41.7036 119.635 41.9372 118.285 41.9372ZM118.321 37.6142C118.989 37.6142 119.596 37.4894 120.148 37.2431C120.7 36.9967 121.165 36.6607 121.549 36.2415C121.933 35.8223 122.23 35.3327 122.45 34.7728C122.666 34.2128 122.776 33.6176 122.776 32.9937V32.9425C122.776 32.3153 122.666 31.7233 122.45 31.1633C122.233 30.6034 121.923 30.1106 121.523 29.6818C121.123 29.253 120.648 28.9107 120.099 28.6547C119.547 28.3987 118.94 28.2707 118.272 28.2707C117.604 28.2707 117 28.3955 116.461 28.6419C115.919 28.8883 115.451 29.221 115.06 29.6434C114.666 30.0626 114.366 30.5522 114.159 31.1121C113.95 31.6721 113.846 32.2673 113.846 32.8913V32.9425C113.846 33.5696 113.956 34.1616 114.172 34.7216C114.389 35.2816 114.692 35.7743 115.086 36.2031C115.48 36.6319 115.948 36.9743 116.5 37.2303C117.049 37.4862 117.656 37.6142 118.324 37.6142H118.321Z" fill="black"/>
<path d="M128.732 24.29H133.254L140.45 33.4352V24.29H145.215V41.5916H140.967L133.493 32.1009V41.5916H128.728V24.29H128.732Z" fill="black"/>
<path d="M146.81 24.2901H160.823V28.3667H151.571V30.9873H159.952V34.7696H151.571V37.5118H160.949V41.5885H146.81V24.2869V24.2901Z" fill="black"/>
<path d="M168.804 41.8893C167.241 41.8893 165.756 41.6493 164.352 41.1693C162.948 40.6893 161.705 39.9662 160.626 39.0062L163.319 35.8095C165.065 37.1951 166.951 37.8862 168.981 37.8862C169.63 37.8862 170.124 37.7839 170.463 37.5791C170.805 37.3743 170.976 37.0799 170.976 36.7023V36.6543C170.976 36.4719 170.934 36.3119 170.853 36.1711C170.769 36.0303 170.615 35.8959 170.392 35.7647C170.166 35.6336 169.869 35.5056 169.494 35.384C169.12 35.2624 168.632 35.1312 168.035 35C167.105 34.7856 166.24 34.552 165.443 34.296C164.646 34.04 163.951 33.7136 163.361 33.3073C162.773 32.9041 162.305 32.4017 161.966 31.8033C161.624 31.2018 161.453 30.4594 161.453 29.5698V29.5218C161.453 28.7155 161.608 27.9763 161.914 27.3011C162.221 26.626 162.67 26.0436 163.261 25.5508C163.848 25.0581 164.562 24.6741 165.395 24.4053C166.224 24.1333 167.164 23.9989 168.21 23.9989C169.707 23.9989 171.041 24.1941 172.213 24.5845C173.384 24.9749 174.446 25.5508 175.392 26.3124L172.974 29.7074C172.177 29.1475 171.357 28.7219 170.518 28.4339C169.678 28.1459 168.868 28.0019 168.087 28.0019C167.506 28.0019 167.07 28.1075 166.779 28.3219C166.489 28.5363 166.344 28.7987 166.344 29.1123V29.1635C166.344 29.3618 166.389 29.5314 166.482 29.6818C166.576 29.8322 166.731 29.9666 166.957 30.0882C167.183 30.2098 167.49 30.3346 167.88 30.4594C168.271 30.581 168.765 30.709 169.362 30.8402C170.36 31.0546 171.26 31.3042 172.067 31.5921C172.874 31.8801 173.559 32.2289 174.124 32.6417C174.689 33.0513 175.121 33.5505 175.421 34.1328C175.722 34.7184 175.87 35.4128 175.87 36.2191V36.2703C175.87 37.1599 175.699 37.947 175.357 38.6382C175.018 39.3294 174.537 39.9182 173.923 40.4013C173.307 40.8877 172.568 41.2557 171.706 41.5117C170.841 41.7677 169.875 41.8957 168.813 41.8957L168.804 41.8893Z" fill="black"/>
<path d="M85.4186 61.9299L91.9526 56.9861C92.7661 56.3589 93.3439 55.815 93.6861 55.3542C94.0251 54.8934 94.1962 54.3974 94.1962 53.8726C94.1962 53.3479 94.0186 52.8999 93.6603 52.5863C93.3019 52.2727 92.8339 52.1159 92.2528 52.1159C91.6717 52.1159 91.1197 52.2919 90.5967 52.6471C90.0737 53.0023 89.4701 53.5655 88.7889 54.3398L85.5219 51.6455C85.9868 51.0536 86.4614 50.5256 86.9424 50.0648C87.4234 49.604 87.9431 49.2169 88.5016 48.9033C89.0568 48.5897 89.6734 48.3529 90.3481 48.1865C91.0196 48.0233 91.7815 47.9401 92.6272 47.9401C93.5763 47.9401 94.4415 48.0745 95.2324 48.3497C96.0233 48.6217 96.698 48.9961 97.2662 49.4729C97.8311 49.9496 98.2734 50.532 98.5865 51.2168C98.9029 51.9015 99.0611 52.6471 99.0611 53.4535V53.5047C99.0611 54.1958 98.9739 54.8134 98.7996 55.3574C98.6253 55.9013 98.3638 56.4069 98.0119 56.8773C97.66 57.3477 97.2404 57.7957 96.74 58.2244C96.2429 58.6532 95.6682 59.098 95.0194 59.5588L92.0268 61.6355H99.2322V65.5393H85.4186V61.9299Z" fill="black"/>
<path d="M109.233 65.8849C107.987 65.8849 106.864 65.6513 105.866 65.1809C104.869 64.7106 104.023 64.0674 103.335 63.2514C102.648 62.4355 102.115 61.4851 101.741 60.3972C101.369 59.3092 101.182 58.1573 101.182 56.9381V56.8869C101.182 55.6678 101.373 54.5094 101.757 53.4151C102.138 52.3207 102.68 51.364 103.377 50.548C104.078 49.7321 104.924 49.0857 105.921 48.6089C106.919 48.1321 108.039 47.8922 109.288 47.8922C110.537 47.8922 111.651 48.1257 112.642 48.5961C113.63 49.0665 114.476 49.7097 115.173 50.5256C115.87 51.3416 116.406 52.2919 116.781 53.3799C117.155 54.4678 117.342 55.623 117.342 56.8389V56.8901C117.342 58.1093 117.155 59.2676 116.781 60.362C116.406 61.4595 115.867 62.4131 115.16 63.229C114.453 64.045 113.601 64.6914 112.603 65.1681C111.606 65.6449 110.483 65.8849 109.236 65.8849H109.233ZM109.282 61.6323C109.763 61.6323 110.205 61.5171 110.605 61.2867C111.002 61.0563 111.341 60.7299 111.616 60.3108C111.89 59.8916 112.103 59.3956 112.252 58.826C112.4 58.2565 112.478 57.6261 112.478 56.9349V56.8837C112.478 56.1926 112.397 55.5558 112.239 54.9798C112.081 54.4038 111.861 53.9047 111.577 53.4855C111.293 53.0663 110.954 52.7367 110.554 52.4967C110.156 52.2567 109.714 52.1384 109.233 52.1384C108.752 52.1384 108.313 52.2535 107.923 52.4839C107.532 52.7143 107.196 53.0375 106.912 53.4471C106.628 53.8599 106.415 54.3526 106.263 54.9318C106.115 55.5078 106.037 56.1414 106.037 56.8357V56.8869C106.037 57.5781 106.115 58.2181 106.273 58.8036C106.431 59.3892 106.651 59.8916 106.935 60.3108C107.219 60.7299 107.558 61.0563 107.955 61.2867C108.355 61.5171 108.794 61.6323 109.278 61.6323H109.282Z" fill="black"/>
<path d="M119.183 61.9299L125.716 56.9861C126.53 56.3589 127.108 55.815 127.45 55.3542C127.789 54.8934 127.96 54.3974 127.96 53.8726C127.96 53.3479 127.783 52.8999 127.424 52.5863C127.066 52.2727 126.598 52.1159 126.017 52.1159C125.436 52.1159 124.884 52.2919 124.361 52.6471C123.838 53.0023 123.234 53.5655 122.553 54.3398L119.286 51.6455C119.751 51.0536 120.225 50.5256 120.706 50.0648C121.191 49.604 121.707 49.2169 122.266 48.9033C122.821 48.5897 123.437 48.3529 124.112 48.1865C124.784 48.0233 125.545 47.9401 126.391 47.9401C127.34 47.9401 128.205 48.0745 128.996 48.3497C129.787 48.6217 130.462 48.9961 131.03 49.4729C131.595 49.9496 132.037 50.532 132.35 51.2168C132.667 51.9015 132.825 52.6471 132.825 53.4535V53.5047C132.825 54.1958 132.738 54.8134 132.564 55.3574C132.389 55.9013 132.128 56.4069 131.776 56.8773C131.427 57.3477 131.004 57.7957 130.504 58.2244C130.007 58.6532 129.432 59.098 128.783 59.5588L125.791 61.6355H132.996V65.5393H119.183V61.9299Z" fill="black"/>
<path d="M148.03 60.0484C148.03 63.0978 145.715 65.8817 140.521 65.8817C138.132 65.8817 135.598 65.2961 133.848 64.1986L135.598 60.5636C137.002 61.4915 138.726 61.9779 140.376 61.9779C142.025 61.9779 143.133 61.3187 143.133 60.1732C143.133 59.1236 142.419 58.4421 139.785 58.4421H135.107L135.969 48.4617H146.952V52.196H140.008L139.785 54.6854H140.941C146.038 54.6854 148.033 57.0277 148.033 60.0548L148.03 60.0484Z" fill="black"/>
</g>
<defs>
<clipPath id="clip0_6_28">
<rect width="190" height="70" fill="white"/>
</clipPath>
</defs>
</svg>
